<svg width="403" height="69" viewBox="0 0 403 69" fill="none" xmlns="http://www.w3.org/2000/svg">
<path d="M17.012 68.339C14.4713 68.339 12.1367 68.0987 10.008 67.618C7.87933 67.1373 6.12833 66.2447 4.755 64.94C3.725 63.9787 3.03833 62.9143 2.695 61.747C2.35167 60.511 2.18 59.172 2.18 57.73C2.18 55.3953 2.386 53.0607 2.798 50.726C3.416 46.6747 3.96533 42.3143 4.446 37.645C4.92667 32.9757 5.167 28.6497 5.167 24.667C5.167 23.431 5.09833 22.0233 4.961 20.444C4.89233 18.8647 4.755 17.3883 4.549 16.015C4.06833 16.221 3.58767 16.427 3.107 16.633C2.695 16.7703 2.31733 16.839 1.974 16.839C1.356 16.839 0.944 16.53 0.738 15.912C0.532 15.294 0.429 14.6073 0.429 13.852C0.429 11.8607 0.875333 10.1783 1.768 8.805C2.72933 7.363 4.27433 6.09266 6.403 4.99399C8.669 3.758 11.6217 2.69367 15.261 1.801C18.969 0.839665 22.7113 0.358998 26.488 0.358998C35.0713 0.358998 41.8007 2.89967 46.676 7.981C51.62 12.9937 54.092 20.135 54.092 29.405C54.092 34.6923 53.268 39.705 51.62 44.443C50.0407 49.1123 47.6717 53.2667 44.513 56.906C41.3543 60.4767 37.4747 63.292 32.874 65.352C28.2733 67.3433 22.986 68.339 17.012 68.339ZM20.308 56.803C23.398 56.803 26.488 56.3223 29.578 55.361C32.668 54.3997 35.449 52.9577 37.921 51.035C40.4617 49.1123 42.4873 46.6747 43.998 43.722C45.5087 40.7007 46.264 37.0957 46.264 32.907C46.264 28.169 45.337 24.255 43.483 21.165C41.629 18.075 39.157 15.7747 36.067 14.264C32.977 12.7533 29.5437 11.998 25.767 11.998C23.707 11.998 21.647 12.1697 19.587 12.513C17.5957 12.8563 16.0163 13.1997 14.849 13.543C14.7803 16.7017 14.5743 19.7917 14.231 22.813C13.9563 25.7657 13.613 28.6497 13.201 31.465C12.789 34.4177 12.4457 37.3017 12.171 40.117C11.965 42.9323 11.862 45.7133 11.862 48.46C11.862 51.8933 12.5487 54.1593 13.922 55.258C15.364 56.288 17.4927 56.803 20.308 56.803ZM83.2941 68.339C76.7708 68.339 71.9298 67.309 68.7711 65.249C65.6811 63.1203 64.1361 59.172 64.1361 53.404C64.1361 52.2367 64.2048 50.829 64.3421 49.181C64.5481 47.533 64.8228 45.5417 65.1661 43.207C65.7154 39.8423 66.1274 36.8553 66.4021 34.246C66.6768 31.568 66.8141 28.6497 66.8141 25.491C66.8141 23.431 66.7454 21.4397 66.6081 19.517C66.5394 17.5943 66.3678 15.7747 66.0931 14.058C65.0631 14.264 64.3764 14.367 64.0331 14.367C63.4838 14.367 63.1061 14.264 62.9001 14.058C62.6941 13.7833 62.5911 13.3027 62.5911 12.616C62.5911 11.174 62.7628 9.76633 63.1061 8.393C63.4494 6.951 63.9301 5.78366 64.5481 4.891C65.7154 3.243 67.5008 2.28166 69.9041 2.007C71.7581 1.801 74.0241 1.595 76.7021 1.389C79.4488 1.183 82.2298 1.04566 85.0451 0.976997C87.9291 0.839665 90.5041 0.770999 92.7701 0.770999C99.0874 0.770999 102.83 0.908331 103.997 1.18299C105.782 1.45766 106.675 2.419 106.675 4.067C106.675 6.127 105.954 8.01533 104.512 9.73199C103.757 10.762 103.001 11.5173 102.246 11.998C101.491 12.41 100.426 12.5817 99.0531 12.513C96.0318 12.307 93.3881 12.1697 91.1221 12.101C88.8561 12.0323 87.2768 11.998 86.3841 11.998C84.8048 11.998 83.1568 12.0323 81.4401 12.101C79.7921 12.1697 78.1098 12.2727 76.3931 12.41C76.3931 14.8133 76.2901 17.3883 76.0841 20.135C75.8781 22.8817 75.6034 25.7657 75.2601 28.787C78.4188 28.581 81.9894 28.4437 85.9721 28.375C89.9548 28.2377 93.4911 28.169 96.5811 28.169C97.9544 28.169 98.8814 28.3063 99.3621 28.581C99.9114 28.8557 100.186 29.5767 100.186 30.744C100.186 31.8427 99.8771 33.0787 99.2591 34.452C98.7098 35.7567 97.9544 36.8897 96.9931 37.851C96.5811 38.263 96.1348 38.6063 95.6541 38.881C95.1734 39.087 94.5211 39.1557 93.6971 39.087C90.7444 38.9497 87.3798 38.8467 83.6031 38.778C79.8951 38.7093 76.6334 38.7093 73.8181 38.778C73.5434 40.3573 73.3374 41.7993 73.2001 43.104C73.0628 44.4087 72.9941 45.576 72.9941 46.606C72.9941 50.3827 73.9554 53.0263 75.8781 54.537C77.8008 56.0477 80.9594 56.803 85.3541 56.803C88.0321 56.803 90.6071 56.5627 93.0791 56.082C95.6198 55.6013 98.1948 54.7087 100.804 53.404C101.765 52.8547 102.486 52.58 102.967 52.58C103.722 52.58 104.443 53.1293 105.13 54.228C105.885 55.258 106.263 56.391 106.263 57.627C106.263 59.1377 105.679 60.5797 104.512 61.953C103.413 63.2577 101.937 64.3907 100.083 65.352C97.9544 66.3133 95.4138 67.0343 92.4611 67.515C89.5084 68.0643 86.4528 68.339 83.2941 68.339ZM134.885 68.648C132.55 68.648 130.731 67.8927 129.426 66.382C128.19 64.8027 127.469 62.0903 127.263 58.245C127.126 54.1937 126.782 50.1767 126.233 46.194C125.752 42.1427 125.066 38.366 124.173 34.864C123.006 29.7827 121.426 25.1133 119.435 20.856C117.512 16.53 114.834 12.9937 111.401 10.247C110.852 9.76633 110.405 9.32 110.062 8.908C109.719 8.42733 109.547 7.84366 109.547 7.157C109.547 5.64633 110.302 4.20433 111.813 2.831C113.392 1.45767 115.212 0.770999 117.272 0.770999C119.675 0.770999 121.735 1.76667 123.452 3.758C125.169 5.74933 126.714 8.53033 128.087 12.101C130.422 17.7317 132.104 24.049 133.134 31.053C134.233 37.9883 134.851 44.6833 134.988 51.138C135.057 53.0607 135.331 54.3653 135.812 55.052C136.293 55.67 137.117 55.979 138.284 55.979C140.756 55.979 143.159 55.0177 145.494 53.095C147.897 51.1723 150.06 48.563 151.983 45.267C153.974 41.971 155.554 38.2287 156.721 34.04C157.888 29.8513 158.472 25.4567 158.472 20.856C158.472 18.0407 158.266 15.7747 157.854 14.058C157.511 12.2727 157.099 10.865 156.618 9.835C156 8.46166 155.691 7.363 155.691 6.539C155.691 5.509 156.172 4.54766 157.133 3.655C158.094 2.76233 159.193 2.04133 160.429 1.492C161.734 0.873996 162.901 0.564996 163.931 0.564996C165.304 0.564996 166.3 1.08 166.918 2.10999C167.536 3.07133 167.948 4.30733 168.154 5.818C168.36 7.32866 168.463 8.87366 168.463 10.453C168.463 15.191 167.914 20.2037 166.815 25.491C165.716 30.7783 164.137 35.997 162.077 41.147C160.086 46.2283 157.682 50.8633 154.867 55.052C152.12 59.172 149.065 62.468 145.7 64.94C142.335 67.412 138.73 68.648 134.885 68.648ZM193.969 68.236C188.27 68.236 184.184 66.897 181.712 64.219C179.24 61.4723 178.004 57.8673 178.004 53.404C178.004 52.2367 178.107 50.829 178.313 49.181C178.519 47.533 178.794 45.5417 179.137 43.207C179.687 39.8423 180.099 36.8553 180.373 34.246C180.648 31.568 180.785 28.6497 180.785 25.491C180.785 21.8517 180.682 18.899 180.476 16.633C179.309 17.3197 178.451 17.663 177.901 17.663C176.803 17.663 176.253 16.427 176.253 13.955C176.253 12.0323 176.665 10.4187 177.489 9.114C178.382 7.74066 179.824 6.47033 181.815 5.303C183.807 4.067 186.313 3.00266 189.334 2.10999C192.424 1.21733 195.72 0.770999 199.222 0.770999C204.922 0.770999 209.248 2.07567 212.2 4.685C215.153 7.29433 216.629 10.7277 216.629 14.985C216.629 17.7317 216.046 20.2723 214.878 22.607C213.711 24.9417 212.063 27.0017 209.934 28.787C218.518 30.1603 222.809 35.1043 222.809 43.619C222.809 48.2197 221.505 52.4083 218.895 56.185C216.286 59.9617 212.75 62.9143 208.286 65.043C203.96 67.1717 199.188 68.236 193.969 68.236ZM198.089 56.803C201.179 56.803 203.96 56.391 206.432 55.567C208.973 54.6743 210.999 53.404 212.509 51.756C214.02 50.108 214.775 48.1853 214.775 45.988C214.775 43.1727 213.78 41.1813 211.788 40.014C209.797 38.8467 207.497 38.263 204.887 38.263C203.789 38.263 202.415 38.366 200.767 38.572C200.081 38.7093 199.291 38.778 198.398 38.778C196.888 38.778 195.617 38.16 194.587 36.924C193.626 35.688 193.145 34.143 193.145 32.289C193.145 30.9843 193.729 30.1603 194.896 29.817C203.274 27.6197 207.462 23.8087 207.462 18.384C207.462 14.058 204.475 11.895 198.501 11.895C196.304 11.895 193.592 12.2727 190.364 13.028C190.364 16.3927 190.193 19.929 189.849 23.637C189.506 27.2763 188.991 31.0873 188.304 35.07C187.892 37.8167 187.549 40.1513 187.274 42.074C187.068 43.928 186.965 45.4387 186.965 46.606C186.965 50.314 187.892 52.9577 189.746 54.537C191.6 56.0477 194.381 56.803 198.089 56.803ZM251.143 68.339C246.474 68.339 242.869 67.824 240.328 66.794C237.787 65.764 236.036 64.322 235.075 62.468C234.114 60.614 233.633 58.4167 233.633 55.876C233.633 54.64 233.736 53.2667 233.942 51.756C234.148 50.1767 234.388 48.3913 234.663 46.4C235.899 38.8467 236.517 32.1517 236.517 26.315C236.517 22.4697 236.345 19.208 236.002 16.53C235.727 13.7833 234.835 11.174 233.324 8.702C233.049 8.29 232.809 7.878 232.603 7.466C232.397 6.98533 232.294 6.60766 232.294 6.333C232.294 5.509 232.775 4.65067 233.736 3.758C234.697 2.86533 235.865 2.11 237.238 1.492C238.611 0.873996 239.916 0.564996 241.152 0.564996C243.487 0.564996 244.929 1.492 245.478 3.346C246.096 5.2 246.405 7.84366 246.405 11.277C246.405 12.5817 246.268 14.676 245.993 17.56C245.718 20.3753 245.306 23.9803 244.757 28.375C244.208 32.6323 243.796 36.306 243.521 39.396C243.246 42.486 243.109 44.958 243.109 46.812C243.109 49.5587 243.418 51.653 244.036 53.095C244.723 54.4683 245.821 55.4297 247.332 55.979C248.843 56.5283 250.971 56.803 253.718 56.803C256.671 56.803 259.486 56.5627 262.164 56.082C264.842 55.5327 267.451 54.7087 269.992 53.61C270.335 53.4727 270.644 53.3697 270.919 53.301C271.194 53.2323 271.434 53.198 271.64 53.198C272.258 53.198 272.842 53.5757 273.391 54.331C273.94 55.0863 274.215 56.1507 274.215 57.524C274.215 60.5453 272.567 62.9143 269.271 64.631C264.876 67.103 258.834 68.339 251.143 68.339ZM301.64 68.339C294.568 68.339 288.903 66.279 284.645 62.159C280.457 57.9703 278.362 51.8247 278.362 43.722C278.362 40.0827 278.843 36.306 279.804 32.392C280.834 28.478 282.517 24.5983 284.851 20.753C283.547 21.9203 282.311 22.504 281.143 22.504C279.152 22.504 278.156 20.9247 278.156 17.766C278.156 15.5 278.637 13.6803 279.598 12.307C280.56 10.9337 281.487 9.835 282.379 9.011C283.89 7.70633 285.813 6.40167 288.147 5.097C290.482 3.72366 293.229 2.59066 296.387 1.698C299.546 0.805332 303.082 0.358998 306.996 0.358998C316.198 0.358998 323.099 2.96833 327.699 8.187C332.369 13.337 334.703 20.5127 334.703 29.714C334.703 35.1387 333.914 40.1857 332.334 44.855C330.755 49.5243 328.489 53.61 325.536 57.112C322.652 60.614 319.185 63.3607 315.133 65.352C311.082 67.3433 306.584 68.339 301.64 68.339ZM305.245 56.803C308.679 56.803 312.043 56.0133 315.339 54.434C318.704 52.8547 321.451 50.3483 323.579 46.915C325.777 43.413 326.875 38.881 326.875 33.319C326.875 28.1003 325.88 23.946 323.888 20.856C321.897 17.6973 319.356 15.4313 316.266 14.058C313.245 12.616 310.052 11.895 306.687 11.895C304.147 11.895 301.846 12.2383 299.786 12.925C297.795 13.543 296.01 14.2297 294.43 14.985C292.645 17.7317 290.963 21.0963 289.383 25.079C287.804 28.993 287.014 33.1473 287.014 37.542C287.014 41.9367 287.873 45.576 289.589 48.46C291.306 51.2753 293.538 53.3697 296.284 54.743C299.1 56.1163 302.087 56.803 305.245 56.803ZM368.461 68.339C363.723 68.339 359.466 67.2747 355.689 65.146C351.912 63.0173 348.925 59.9273 346.728 55.876C344.531 51.8247 343.432 46.915 343.432 41.147C343.432 35.9283 344.29 30.9157 346.007 26.109C347.792 21.2337 350.299 16.8733 353.526 13.028C356.753 9.114 360.667 6.024 365.268 3.758C369.869 1.492 374.984 0.358998 380.615 0.358998C384.735 0.358998 388.168 1.01133 390.915 2.316C393.662 3.62066 395.035 5.54333 395.035 8.084C395.035 9.32 394.692 10.556 394.005 11.792C393.387 12.9593 392.563 13.955 391.533 14.779C390.503 15.603 389.439 16.015 388.34 16.015C387.653 16.015 387.104 15.8433 386.692 15.5C383.121 13.0967 379.07 11.895 374.538 11.895C369.731 11.895 365.68 13.028 362.384 15.294C359.088 17.4913 356.582 20.4097 354.865 24.049C353.217 27.6883 352.393 31.6367 352.393 35.894C352.393 42.28 354.178 47.3613 357.749 51.138C361.388 54.9147 366.229 56.803 372.272 56.803C374.881 56.803 377.319 56.4253 379.585 55.67C381.851 54.9147 383.705 53.816 385.147 52.374C386.589 50.932 387.31 49.181 387.31 47.121C387.31 45.061 386.692 43.4817 385.456 42.383C384.22 41.2843 382.606 40.4947 380.615 40.014C378.624 39.4647 376.461 39.1213 374.126 38.984C372.478 38.8467 371.242 38.6407 370.418 38.366C369.663 38.0913 369.285 37.2673 369.285 35.894C369.285 34.246 369.8 32.8727 370.83 31.774C371.86 30.6753 373.13 30.0573 374.641 29.92C376.701 29.714 379.173 29.5767 382.057 29.508C384.941 29.3707 387.928 29.302 391.018 29.302C394.177 29.2333 397.129 29.199 399.876 29.199C400.769 29.199 401.455 29.3707 401.936 29.714C402.417 29.9887 402.657 30.6067 402.657 31.568C402.657 32.7353 402.382 34.0057 401.833 35.379C401.352 36.7523 400.666 37.9197 399.773 38.881C398.88 39.8423 397.85 40.323 396.683 40.323H395.035C395.241 41.0097 395.413 41.7993 395.55 42.692C395.756 43.516 395.859 44.4773 395.859 45.576C395.859 48.5973 395.138 51.4813 393.696 54.228C392.254 56.906 390.263 59.3093 387.722 61.438C385.181 63.5667 382.263 65.249 378.967 66.485C375.671 67.721 372.169 68.339 368.461 68.339Z" fill="white"/>
</svg>
