<svg width="431" height="69" viewBox="0 0 431 69" fill="none" xmlns="http://www.w3.org/2000/svg">
<path d="M23.69 68.442C21.3553 68.442 19.5357 67.7897 18.231 66.485C16.995 65.1117 16.3083 62.5367 16.171 58.76C16.1023 54.7087 15.8963 50.6917 15.553 46.709C15.2097 42.7263 14.6603 38.9497 13.905 35.379C12.875 30.1603 11.4673 25.4567 9.682 21.268C7.89667 17.0793 5.39033 13.4743 2.163 10.453C1.61367 9.90366 1.16733 9.38866 0.824 8.908C0.480667 8.42733 0.309 7.878 0.309 7.26C0.309 5.818 1.06433 4.44467 2.575 3.14C4.08567 1.76666 5.871 1.08 7.931 1.08C10.3343 1.08 12.3943 2.11 14.111 4.17C15.8277 6.23 17.304 9.114 18.54 12.822C19.982 16.5987 21.115 20.7187 21.939 25.182C22.763 29.6453 23.3123 34.2117 23.587 38.881C23.9303 43.4817 24.102 47.945 24.102 52.271C24.102 53.7817 24.308 54.7773 24.72 55.258C25.132 55.7387 25.853 55.979 26.883 55.979C29.149 55.979 31.3807 55.2923 33.578 53.919C35.844 52.5457 37.8697 50.6917 39.655 48.357C41.509 45.9537 42.9853 43.31 44.084 40.426C45.1827 37.542 45.7663 34.6237 45.835 31.671C45.9037 28.581 45.3543 25.594 44.187 22.71C43.0883 19.7573 41.6463 17.251 39.861 15.191C39.3803 14.6417 39.0027 14.161 38.728 13.749C38.522 13.2683 38.419 12.7877 38.419 12.307C38.419 11.2083 38.8653 10.144 39.758 9.114C40.6507 8.084 41.6807 7.22566 42.848 6.539C44.0153 5.85233 45.011 5.509 45.835 5.509C47.5517 5.509 48.9937 6.77933 50.161 9.32C51.397 11.792 52.427 14.8133 53.251 18.384C54.4183 22.916 55.2423 27.9973 55.723 33.628C56.2037 39.2587 56.444 45.1983 56.444 51.447C56.444 53.1637 56.6157 54.331 56.959 54.949C57.3023 55.567 58.0577 55.876 59.225 55.876C61.697 55.876 64.1003 54.9833 66.435 53.198C68.7697 51.4127 70.8297 48.975 72.615 45.885C74.469 42.7263 75.911 39.1557 76.941 35.173C78.0397 31.1217 78.589 26.8643 78.589 22.401C78.589 19.0363 78.3143 16.324 77.765 14.264C77.2843 12.1353 76.8037 10.6247 76.323 9.73199C75.6363 8.42733 75.293 7.32866 75.293 6.436C75.293 5.406 75.7393 4.44466 76.632 3.55199C77.5933 2.59066 78.7263 1.80099 80.031 1.18299C81.3357 0.564998 82.4687 0.256 83.43 0.256C84.9407 0.256 86.005 0.908333 86.623 2.213C87.3097 3.449 87.7217 4.994 87.859 6.84799C88.065 8.702 88.168 10.453 88.168 12.101C88.168 16.839 87.653 21.8173 86.623 27.036C85.6617 32.186 84.254 37.233 82.4 42.177C80.546 47.0523 78.3143 51.4813 75.705 55.464C73.1643 59.378 70.2803 62.5367 67.053 64.94C63.8257 67.2747 60.358 68.442 56.65 68.442C54.178 68.442 52.3583 67.8927 51.191 66.794C50.0237 65.6953 49.2683 64.1503 48.925 62.159C48.5817 60.1677 48.41 57.833 48.41 55.155C48.41 53.5757 48.41 52.0993 48.41 50.726C48.4787 49.284 48.513 47.9793 48.513 46.812C45.3543 53.8847 41.5433 59.275 37.08 62.983C32.6167 66.6223 28.1533 68.442 23.69 68.442ZM133.76 67.88C132.106 67.88 130.693 67.1867 129.52 65.8C128.4 64.36 127.306 62.0133 126.24 58.76C125.706 57.16 125.253 55.6133 124.88 54.12C124.56 52.5733 124.32 51.08 124.16 49.64C123.466 50.7067 122.826 51.4267 122.24 51.8C121.706 52.12 120.906 52.28 119.84 52.28C117.226 52.28 114.453 52.2533 111.52 52.2C108.586 52.0933 105.973 52.0133 103.68 51.96C103.573 52.92 103.466 53.9067 103.36 54.92C103.306 55.88 103.28 56.84 103.28 57.8C103.28 58.6533 103.306 59.5067 103.36 60.36C103.466 61.2133 103.546 62.04 103.6 62.84C103.76 64.3333 103.173 65.5333 101.84 66.44C100.506 67.3467 98.853 67.8 96.8796 67.8C95.173 67.8 94.3196 67.0533 94.3196 65.56C94.3196 64.6533 94.5596 63.2933 95.0396 61.48C95.3063 60.2533 95.5196 59.2133 95.6796 58.36C95.8396 57.4533 95.9196 56.7333 95.9196 56.2C95.9196 54.7067 95.4663 53.6933 94.5596 53.16C93.813 52.7333 93.4396 52.1733 93.4396 51.48C93.4396 50.84 93.573 50.0667 93.8396 49.16C94.1596 48.2533 94.5596 47.4267 95.0396 46.68C95.5196 45.88 95.973 45.32 96.3996 45C96.773 44.7867 97.2263 44.6 97.7596 44.44C98.293 44.28 98.9596 44.1733 99.7596 44.12C101.84 38.1467 104.16 33 106.72 28.68C109.333 24.3067 112.106 20.9467 115.04 18.6C117.973 16.2 120.96 15 124 15C125.866 15 127.226 15.64 128.08 16.92C128.933 18.1467 129.36 20.2267 129.36 23.16V26.76C129.36 32.1467 129.76 37.1067 130.56 41.64C131.36 46.1733 132.346 49.8533 133.52 52.68C134.693 55.6667 136.32 58.12 138.4 60.04C139.04 60.5733 139.466 61.0533 139.68 61.48C139.893 61.8533 140 62.2533 140 62.68C140 63.48 139.68 64.28 139.04 65.08C138.453 65.88 137.68 66.5467 136.72 67.08C135.76 67.6133 134.773 67.88 133.76 67.88ZM106.08 43.64C108.693 43.5333 110.986 43.4533 112.96 43.4C114.933 43.2933 116.586 43.24 117.92 43.24H123.52C123.413 41.7467 123.306 40.1733 123.2 38.52C123.146 36.8667 123.12 35.1333 123.12 33.32V28.68C123.12 27.1333 122.933 26.12 122.56 25.64C122.24 25.1067 121.6 24.84 120.64 24.84C118.026 24.84 115.413 26.5467 112.8 29.96C110.186 33.3733 107.946 37.9333 106.08 43.64ZM156.142 67.32C154.489 67.32 153.235 66.9733 152.382 66.28C151.529 65.5333 151.102 64.2533 151.102 62.44C151.102 61.0533 151.315 59.1333 151.742 56.68C152.222 54.1733 152.889 51.4 153.742 48.36C153.315 46.2267 152.782 44.0133 152.142 41.72C151.555 39.3733 150.862 37.16 150.062 35.08C149.049 32.2533 147.822 29.88 146.382 27.96C144.942 26.04 143.235 25.08 141.262 25.08C140.889 25.08 140.515 25.1067 140.142 25.16C139.822 25.2133 139.529 25.2933 139.262 25.4C138.729 25.5067 138.169 25.1333 137.582 24.28C137.049 23.4267 136.782 22.4133 136.782 21.24C136.782 19.7467 137.289 18.44 138.302 17.32C139.369 16.1467 140.809 15.56 142.622 15.56C144.862 15.56 146.915 16.3067 148.782 17.8C150.702 19.24 152.382 21.6933 153.822 25.16C155.315 28.6267 156.515 33.3467 157.422 39.32C158.382 36.8667 159.529 34.28 160.862 31.56C162.249 28.7867 163.795 26.2 165.502 23.8C167.209 21.3467 169.049 19.3733 171.022 17.88C172.995 16.3333 175.075 15.56 177.262 15.56C178.702 15.56 179.795 15.9067 180.542 16.6C181.342 17.2933 181.742 18.2533 181.742 19.48C181.742 20.3333 181.555 21.24 181.182 22.2C180.862 23.16 180.409 23.9867 179.822 24.68C179.235 25.3733 178.622 25.72 177.982 25.72C177.769 25.72 177.529 25.72 177.262 25.72C177.049 25.6667 176.809 25.5867 176.542 25.48C176.009 25.2133 175.395 25.08 174.702 25.08C172.995 25.08 171.129 26.2533 169.102 28.6C167.075 30.9467 165.075 34.5733 163.102 39.48C161.075 44.6533 160.062 49.6667 160.062 54.52C160.062 55.64 160.195 56.76 160.462 57.88C160.782 58.9467 161.342 59.9333 162.142 60.84C162.675 61.64 162.942 62.3867 162.942 63.08C162.942 64.2533 162.302 65.2667 161.022 66.12C159.742 66.92 158.115 67.32 156.142 67.32ZM191.008 68.03C190.184 68.03 189.326 67.8927 188.433 67.618C187.609 67.3433 186.888 66.691 186.27 65.661C185.721 64.631 185.446 63.0517 185.446 60.923C185.446 59.5497 185.583 57.7643 185.858 55.567C186.133 53.301 186.51 50.3827 186.991 46.812C187.334 44.546 187.712 41.5247 188.124 37.748C188.605 33.9027 188.845 29.8857 188.845 25.697C188.845 23.843 188.776 21.886 188.639 19.826C188.502 17.6973 188.227 15.7747 187.815 14.058C186.991 14.264 186.373 14.367 185.961 14.367C185.549 14.367 185.24 14.264 185.034 14.058C184.828 13.7833 184.725 13.3027 184.725 12.616C184.725 11.2427 184.862 9.86933 185.137 8.496C185.48 7.054 185.995 5.85233 186.682 4.891C187.369 3.92966 188.158 3.243 189.051 2.831C190.012 2.419 191.008 2.14433 192.038 2.007C193.755 1.801 195.918 1.62933 198.527 1.492C201.205 1.28599 203.986 1.11433 206.87 0.976997C209.823 0.839665 212.501 0.770999 214.904 0.770999C218.131 0.770999 220.5 0.805332 222.011 0.873998C223.59 0.942664 224.792 1.04566 225.616 1.18299C227.401 1.45766 228.294 2.419 228.294 4.067C228.294 5.23433 228.054 6.29866 227.573 7.26C227.161 8.15266 226.646 8.97666 226.028 9.73199C225.273 10.8307 224.449 11.6203 223.556 12.101C222.732 12.513 221.633 12.6503 220.26 12.513C219.093 12.3757 217.479 12.2727 215.419 12.204C213.428 12.0667 211.127 11.998 208.518 11.998C207.419 11.998 205.977 12.0323 204.192 12.101C202.407 12.1697 200.518 12.2727 198.527 12.41C198.458 14.7447 198.252 17.4227 197.909 20.444C197.566 23.3967 197.188 26.418 196.776 29.508C198.63 29.3707 200.862 29.2677 203.471 29.199C206.08 29.0617 208.758 28.9587 211.505 28.89C214.252 28.8213 216.689 28.787 218.818 28.787C220.054 28.787 220.947 28.9587 221.496 29.302C222.045 29.5767 222.32 30.229 222.32 31.259C222.32 32.4263 222.011 33.6967 221.393 35.07C220.844 36.3747 220.088 37.5077 219.127 38.469C218.234 39.4303 217.273 39.8767 216.243 39.808C214.526 39.6707 212.089 39.5677 208.93 39.499C205.84 39.4303 202.578 39.396 199.145 39.396H195.849C195.712 40.9067 195.574 42.4173 195.437 43.928C195.368 45.37 195.334 46.709 195.334 47.945C195.334 50.3483 195.574 52.477 196.055 54.331C196.536 56.1163 197.463 57.6613 198.836 58.966C199.729 59.8587 200.175 60.8887 200.175 62.056C200.175 63.5667 199.317 64.94 197.6 66.176C195.883 67.412 193.686 68.03 191.008 68.03ZM237.414 67.8C236.134 67.8 235.094 67.4533 234.294 66.76C233.494 66.0667 233.094 64.6533 233.094 62.52C233.094 61.4533 233.2 60.0667 233.414 58.36C233.627 56.6533 233.84 54.9467 234.054 53.24C234.64 49.4533 235.067 46.1733 235.334 43.4C235.6 40.6267 235.734 37.8 235.734 34.92C235.734 32.2533 235.574 29.7733 235.254 27.48C234.987 25.1867 234.267 23.2133 233.094 21.56C232.667 20.8667 232.454 20.3333 232.454 19.96C232.454 19.32 232.8 18.6533 233.494 17.96C234.24 17.2133 235.12 16.6 236.134 16.12C237.2 15.64 238.187 15.4 239.094 15.4C240.747 15.4 241.84 16.1467 242.374 17.64C242.96 19.08 243.254 20.8933 243.254 23.08C243.254 24.4133 243.174 26.0667 243.014 28.04C242.854 30.0133 242.667 31.9333 242.454 33.8C242.294 35.6133 242.134 37.0267 241.974 38.04C241.6 40.8667 241.307 43.5067 241.094 45.96C240.88 48.4133 240.774 50.4933 240.774 52.2C240.774 54.2267 240.96 55.9333 241.334 57.32C241.76 58.7067 242.48 59.8533 243.494 60.76C244.187 61.4 244.534 62.12 244.534 62.92C244.534 64.2 243.867 65.3467 242.534 66.36C241.254 67.32 239.547 67.8 237.414 67.8ZM256.441 67.8C255.267 67.8 254.254 67.5067 253.401 66.92C252.601 66.28 252.201 64.8133 252.201 62.52C252.201 61.3467 252.307 59.9333 252.521 58.28C252.787 56.5733 253.054 54.8133 253.321 53C253.747 50.44 254.174 47.64 254.601 44.6C255.027 41.5067 255.241 38.44 255.241 35.4C255.241 32.2 255.134 29.7467 254.921 28.04C254.707 26.3333 254.467 24.9467 254.201 23.88C254.094 23.2933 253.987 22.76 253.881 22.28C253.827 21.8 253.801 21.2667 253.801 20.68C253.801 18.9733 254.334 17.6933 255.401 16.84C256.521 15.9333 257.747 15.48 259.081 15.48C260.414 15.48 261.534 15.8267 262.441 16.52C263.347 17.16 264.147 17.8533 264.841 18.6C269.427 23.7733 273.561 29.2133 277.241 34.92C280.921 40.5733 283.987 46.3867 286.441 52.36C286.707 52.7867 286.947 53 287.161 53C287.481 53 287.694 52.7867 287.801 52.36C288.761 46.12 289.241 40.4667 289.241 35.4C289.241 32.36 289.107 29.96 288.841 28.2C288.627 26.3867 288.334 25 287.961 24.04C287.641 23.0267 287.321 22.2267 287.001 21.64C286.841 21.2667 286.707 20.9467 286.601 20.68C286.494 20.36 286.441 20.0667 286.441 19.8C286.441 19.16 286.761 18.52 287.401 17.88C288.094 17.1867 288.921 16.6267 289.881 16.2C290.841 15.7733 291.774 15.56 292.681 15.56C293.961 15.56 294.894 15.9867 295.481 16.84C296.067 17.6933 296.441 18.76 296.601 20.04C296.814 21.2667 296.921 22.52 296.921 23.8C296.921 25.24 296.787 27.1067 296.521 29.4C296.254 31.6933 295.934 34.1733 295.561 36.84C295.241 39.4533 294.947 42.04 294.681 44.6C294.467 47.16 294.361 49.4267 294.361 51.4C294.361 52.52 294.387 53.6133 294.441 54.68C294.547 55.7467 294.654 56.7867 294.761 57.8C294.921 59.1333 295.001 60.3067 295.001 61.32C295.001 63.2933 294.494 64.8667 293.481 66.04C292.521 67.16 291.187 67.72 289.481 67.72C288.307 67.72 287.134 67.3733 285.961 66.68C284.841 65.9867 283.987 64.8667 283.401 63.32C281.107 57.4533 278.281 51.7467 274.921 46.2C271.614 40.6 268.147 35.7733 264.521 31.72C263.934 31.1867 263.454 30.92 263.081 30.92C262.547 30.92 262.201 31.5067 262.041 32.68C261.774 34.7067 261.507 36.92 261.241 39.32C260.974 41.72 260.761 44.0667 260.601 46.36C260.441 48.6 260.361 50.52 260.361 52.12C260.361 53.9333 260.521 55.5067 260.841 56.84C261.161 58.12 261.641 59.3733 262.281 60.6C262.867 61.6667 263.161 62.6267 263.161 63.48C263.161 64.4933 262.574 65.48 261.401 66.44C260.227 67.3467 258.574 67.8 256.441 67.8ZM316.716 68.04C314.742 68.04 312.929 67.8533 311.276 67.48C309.622 67.1067 308.262 66.4133 307.196 65.4C306.396 64.6533 305.862 63.8267 305.596 62.92C305.329 61.96 305.196 60.92 305.196 59.8C305.196 57.9867 305.356 56.1733 305.676 54.36C306.156 51.2133 306.582 47.8267 306.956 44.2C307.329 40.5733 307.516 37.2133 307.516 34.12C307.516 33.16 307.462 32.0667 307.356 30.84C307.302 29.6133 307.196 28.4667 307.036 27.4C306.662 27.56 306.289 27.72 305.916 27.88C305.596 27.9867 305.302 28.04 305.036 28.04C304.556 28.04 304.236 27.8 304.076 27.32C303.916 26.84 303.836 26.3067 303.836 25.72C303.836 24.1733 304.182 22.8667 304.876 21.8C305.622 20.68 306.822 19.6933 308.476 18.84C310.236 17.88 312.529 17.0533 315.356 16.36C318.236 15.6133 321.142 15.24 324.076 15.24C330.742 15.24 335.969 17.2133 339.756 21.16C343.596 25.0533 345.516 30.6 345.516 37.8C345.516 41.9067 344.876 45.8 343.596 49.48C342.369 53.1067 340.529 56.3333 338.076 59.16C335.622 61.9333 332.609 64.12 329.036 65.72C325.462 67.2667 321.356 68.04 316.716 68.04ZM319.276 59.08C321.676 59.08 324.076 58.7067 326.476 57.96C328.876 57.2133 331.036 56.0933 332.956 54.6C334.929 53.1067 336.502 51.2133 337.676 48.92C338.849 46.5733 339.436 43.7733 339.436 40.52C339.436 36.84 338.716 33.8 337.276 31.4C335.836 29 333.916 27.2133 331.516 26.04C329.116 24.8667 326.449 24.28 323.516 24.28C321.916 24.28 320.316 24.4133 318.716 24.68C317.169 24.9467 315.942 25.2133 315.036 25.48C314.982 27.9333 314.822 30.3333 314.556 32.68C314.342 34.9733 314.076 37.2133 313.756 39.4C313.436 41.6933 313.169 43.9333 312.956 46.12C312.796 48.3067 312.716 50.4667 312.716 52.6C312.716 55.2667 313.249 57.0267 314.316 57.88C315.436 58.68 317.089 59.08 319.276 59.08ZM368.197 68.04C363.13 68.04 359.37 67.24 356.917 65.64C354.517 63.9867 353.317 60.92 353.317 56.44C353.317 55.5333 353.37 54.44 353.477 53.16C353.637 51.88 353.85 50.3333 354.117 48.52C354.543 45.9067 354.863 43.5867 355.077 41.56C355.29 39.48 355.397 37.2133 355.397 34.76C355.397 33.16 355.343 31.6133 355.237 30.12C355.183 28.6267 355.05 27.2133 354.837 25.88C354.037 26.04 353.503 26.12 353.237 26.12C352.81 26.12 352.517 26.04 352.357 25.88C352.197 25.6667 352.117 25.2933 352.117 24.76C352.117 23.64 352.25 22.5467 352.517 21.48C352.783 20.36 353.157 19.4533 353.637 18.76C354.543 17.48 355.93 16.7333 357.797 16.52C359.237 16.36 360.997 16.2 363.077 16.04C365.21 15.88 367.37 15.7733 369.557 15.72C371.797 15.6133 373.797 15.56 375.557 15.56C380.463 15.56 383.37 15.6667 384.277 15.88C385.663 16.0933 386.357 16.84 386.357 18.12C386.357 19.72 385.797 21.1867 384.677 22.52C384.09 23.32 383.503 23.9067 382.917 24.28C382.33 24.6 381.503 24.7333 380.437 24.68C378.09 24.52 376.037 24.4133 374.277 24.36C372.517 24.3067 371.29 24.28 370.597 24.28C369.37 24.28 368.09 24.3067 366.757 24.36C365.477 24.4133 364.17 24.4933 362.837 24.6C362.837 26.4667 362.757 28.4667 362.597 30.6C362.437 32.7333 362.223 34.9733 361.957 37.32C364.41 37.16 367.183 37.0533 370.277 37C373.37 36.8933 376.117 36.84 378.517 36.84C379.583 36.84 380.303 36.9467 380.677 37.16C381.103 37.3733 381.317 37.9333 381.317 38.84C381.317 39.6933 381.077 40.6533 380.597 41.72C380.17 42.7333 379.583 43.6133 378.837 44.36C378.517 44.68 378.17 44.9467 377.797 45.16C377.423 45.32 376.917 45.3733 376.277 45.32C373.983 45.2133 371.37 45.1333 368.437 45.08C365.557 45.0267 363.023 45.0267 360.837 45.08C360.623 46.3067 360.463 47.4267 360.357 48.44C360.25 49.4533 360.197 50.36 360.197 51.16C360.197 54.0933 360.943 56.1467 362.437 57.32C363.93 58.4933 366.383 59.08 369.797 59.08C371.877 59.08 373.877 58.8933 375.797 58.52C377.77 58.1467 379.77 57.4533 381.797 56.44C382.543 56.0133 383.103 55.8 383.477 55.8C384.063 55.8 384.623 56.2267 385.157 57.08C385.743 57.88 386.037 58.76 386.037 59.72C386.037 60.8933 385.583 62.0133 384.677 63.08C383.823 64.0933 382.677 64.9733 381.237 65.72C379.583 66.4667 377.61 67.0267 375.317 67.4C373.023 67.8267 370.65 68.04 368.197 68.04ZM396.543 67.8C395.903 67.8 395.236 67.6933 394.543 67.48C393.903 67.2667 393.37 66.76 392.943 65.96C392.516 65.16 392.303 63.9333 392.303 62.28C392.303 61.2133 392.383 59.8533 392.543 58.2C392.756 56.4933 392.97 54.84 393.183 53.24C393.61 50.5733 393.983 47.64 394.303 44.44C394.676 41.24 394.863 38.0667 394.863 34.92C394.863 33.8 394.836 32.6267 394.783 31.4C394.73 30.1733 394.623 29 394.463 27.88C394.143 28.04 393.77 28.2 393.343 28.36C392.97 28.4667 392.65 28.52 392.383 28.52C391.85 28.52 391.476 28.2533 391.263 27.72C391.103 27.1333 391.023 26.4667 391.023 25.72C391.023 24.0133 391.423 22.6533 392.223 21.64C393.076 20.5733 394.33 19.6133 395.983 18.76C398.17 17.5333 400.49 16.6533 402.943 16.12C405.45 15.5333 407.823 15.24 410.063 15.24C413.37 15.24 416.303 15.8267 418.863 17C421.423 18.1733 423.423 19.8267 424.863 21.96C426.303 24.0933 427.023 26.6533 427.023 29.64C427.023 32.7333 426.276 35.48 424.783 37.88C423.343 40.28 421.476 42.2533 419.183 43.8C416.943 45.2933 414.65 46.28 412.303 46.76C413.156 48.0933 414.063 49.4267 415.023 50.76C416.036 52.0933 417.05 53.2933 418.063 54.36C421.103 57.5067 424.196 59.08 427.343 59.08C428.196 59.08 428.943 59.0267 429.583 58.92C429.903 58.8667 430.17 59 430.383 59.32C430.65 59.5867 430.783 60.1467 430.783 61C430.783 62.0133 430.57 63.0533 430.143 64.12C429.716 65.1333 428.996 65.9867 427.983 66.68C426.97 67.3733 425.583 67.72 423.823 67.72C421.743 67.72 419.743 67.0267 417.823 65.64C415.956 64.2533 414.223 62.4933 412.623 60.36C411.023 58.1733 409.583 55.88 408.303 53.48C407.076 51.08 406.036 48.8667 405.183 46.84C404.97 46.2533 404.783 45.6933 404.623 45.16C404.463 44.5733 404.383 44.0133 404.383 43.48C404.383 42.5733 404.676 41.8267 405.263 41.24C405.69 40.8133 406.276 40.52 407.023 40.36C407.823 40.2 408.97 40.12 410.463 40.12C413.29 40.12 415.583 39.3467 417.343 37.8C419.103 36.2533 419.983 34.2533 419.983 31.8C419.983 29.1333 418.97 27.1867 416.943 25.96C414.97 24.7333 412.543 24.12 409.663 24.12C407.316 24.12 404.863 24.4933 402.303 25.24C402.143 28.7067 401.77 32.68 401.183 37.16C400.863 39.8267 400.57 42.4667 400.303 45.08C400.09 47.6933 399.983 50.0667 399.983 52.2C399.983 54.0667 400.143 55.72 400.463 57.16C400.836 58.5467 401.556 59.7467 402.623 60.76C403.37 61.5067 403.743 62.3067 403.743 63.16C403.743 64.3333 403.076 65.4 401.743 66.36C400.41 67.32 398.676 67.8 396.543 67.8Z" fill="white"/>
</svg>
